<svg xmlns="http://www.w3.org/2000/svg" width="1024" height="1024" viewBox="0 0 1024 1024" fill="none">
  <rect width="1024" height="1024" rx="100" fill="#4B7C70"/>
  <circle cx="512" cy="430" r="210" stroke="#F8F8F5" stroke-width="14"/>
  <path d="M 352 437 C 382 437, 396 375, 426 375 C 456 375, 464 518, 510 518 C 556 518, 560 400, 604 400 C 642 400, 652 486, 694 486 C 730 486, 746 436, 770 436" stroke="#F8F8F5" stroke-width="14" stroke-linecap="round" stroke-linejoin="round" fill="none"/>
  <circle cx="438" cy="376" r="18" fill="#F2C1B1"/>
  <path d="M 382.66 805.00 L 382.66 798.60 L 394.14 798.60 L 394.14 721.25 L 382.00 721.25 L 382.00 714.78 L 408.28 714.78 L 439.95 779.01 L 471.60 714.78 L 496.26 714.78 L 496.26 721.25 L 484.23 721.25 L 484.23 798.60 L 495.77 798.60 L 495.77 805.00 L 460.49 805.00 L 460.49 798.60 L 471.97 798.60 L 471.97 728.85 L 441.03 791.77 L 432.51 791.77 L 401.57 728.85 L 401.57 798.60 L 413.05 798.60 L 413.05 805.00 L 382.66 805.00 Z M 533.12 798.60 L 544.60 798.60 L 544.60 805.00 L 509.37 805.00 L 509.37 798.60 L 520.86 798.60 L 520.86 721.25 L 509.37 721.25 L 509.37 714.78 L 544.60 714.78 L 544.60 721.25 L 533.12 721.25 L 533.12 798.60 Z M 576.20 772.30 L 609.32 772.30 L 592.77 729.41 L 576.20 772.30 Z M 550.69 805.00 L 550.69 798.60 L 558.62 798.60 L 590.76 714.78 L 600.91 714.78 L 633.12 798.60 L 642.00 798.60 L 642.00 805.00 L 609.21 805.00 L 609.21 798.60 L 619.22 798.60 L 611.68 778.78 L 573.72 778.78 L 566.18 798.60 L 576.08 798.60 L 576.08 805.00 L 550.69 805.00 Z" fill="#F8F8F5"/>
</svg>